<svg width="25" height="24" viewBox="0 0 25 24" fill="none" xmlns="http://www.w3.org/2000/svg">
<g clip-path="url(#clip0_1_260)">
<path d="M21.1734 4.61012C20.6626 4.09912 20.0562 3.69376 19.3887 3.4172C18.7213 3.14064 18.0059 2.99829 17.2834 2.99829C16.5609 2.99829 15.8455 3.14064 15.178 3.4172C14.5106 3.69376 13.9041 4.09912 13.3934 4.61012L12.3334 5.67012L11.2734 4.61012C10.2417 3.57842 8.8424 2.99883 7.38337 2.99883C5.92434 2.99883 4.52506 3.57842 3.49337 4.61012C2.46168 5.64181 1.88208 7.04108 1.88208 8.50012C1.88208 9.95915 2.46168 11.3584 3.49337 12.3901L4.55337 13.4501L12.3334 21.2301L20.1134 13.4501L21.1734 12.3901C21.6844 11.8794 22.0897 11.2729 22.3663 10.6055C22.6428 9.93801 22.7852 9.2226 22.7852 8.50012C22.7852 7.77763 22.6428 7.06222 22.3663 6.39476C22.0897 5.7273 21.6844 5.12087 21.1734 4.61012V4.61012Z" stroke="white" stroke-width="2" stroke-linecap="round" stroke-linejoin="round"/>
</g>
<defs>
<clipPath id="clip0_1_260">
<rect width="24" height="24" fill="white" transform="translate(0.333374)"/>
</clipPath>
</defs>
</svg>
