<svg width="244" height="142" viewBox="0 0 244 142" fill="none" xmlns="http://www.w3.org/2000/svg">
<g style="mix-blend-mode:luminosity">
<path d="M18.8407 0C8.43525 0 0 8.3652 0 18.6842V123.316C0 133.635 8.43525 142 18.8407 142H225.146C235.551 142 243.986 133.635 243.986 123.316V95.5156C243.986 93.3096 244.64 86 236.883 93.7254C230.404 101.526 220.589 106.5 209.602 106.5C190.092 106.5 174.276 90.8152 174.276 71.4671C174.276 52.119 190.092 36.4342 209.602 36.4342C220.589 36.4342 230.404 41.408 236.883 49.2088C243.986 56.2833 243.986 49.6246 243.986 47.4186V18.6842C243.986 8.36521 235.551 0 225.146 0H18.8407Z"/>
<path d="M242.31 71.2934C242.31 89.2251 227.651 103.762 209.568 103.762C191.485 103.762 176.826 89.2251 176.826 71.2934C176.826 53.3616 191.485 38.8251 209.568 38.8251C227.651 38.8251 242.31 53.3616 242.31 71.2934Z" fill="#091B14"/>
<path d="M218.69 70.512C219.677 71.0766 219.677 72.4882 218.69 73.0528L206.856 79.8283C205.87 80.3929 204.637 79.6871 204.637 78.5579V65.0069C204.637 63.8776 205.87 63.1718 206.856 63.7364L218.69 70.512Z" fill="white"/>
</g>
</svg>
